{
	"asset":{
		"generator":"Khronos glTF Blender I/O v4.0.44",
		"version":"2.0"
	},
	"extensionsUsed":[
		"KHR_materials_specular",
		"KHR_materials_ior"
	],
	"scene":0,
	"scenes":[
		{
			"name":"Scene",
			"nodes":[
				0
			]
		}
	],
	"nodes":[
		{
			"mesh":0,
			"name":"abstract_cube",
			"rotation":[
				0.7071068286895752,
				0,
				0,
				0.7071068286895752
			]
		}
	],
	"materials":[
		{
			"doubleSided":true,
			"extensions":{
				"KHR_materials_specular":{
					"specularFactor":0
				},
				"KHR_materials_ior":{
					"ior":1.4500000476837158
				}
			},
			"name":"default",
			"pbrMetallicRoughness":{
				"baseColorFactor":[
					0.800000011920929,
					0.800000011920929,
					0.800000011920929,
					1
				],
				"metallicFactor":0
			}
		}
	],
	"meshes":[
		{
			"name":"abstract_cube",
			"primitives":[
				{
					"attributes":{
						"POSITION":0,
						"NORMAL":1
					},
					"indices":2,
					"material":0
				}
			]
		}
	],
	"accessors":[
		{
			"bufferView":0,
			"componentType":5126,
			"count":331776,
			"max":[
				79.81617736816406,
				79.81617736816406,
				79.81617736816406
			],
			"min":[
				-79.81617736816406,
				-79.81617736816406,
				-79.81617736816406
			],
			"type":"VEC3"
		},
		{
			"bufferView":1,
			"componentType":5126,
			"count":331776,
			"type":"VEC3"
		},
		{
			"bufferView":2,
			"componentType":5125,
			"count":497664,
			"type":"SCALAR"
		}
	],
	"bufferViews":[
		{
			"buffer":0,
			"byteLength":3981312,
			"byteOffset":0,
			"target":34962
		},
		{
			"buffer":0,
			"byteLength":3981312,
			"byteOffset":3981312,
			"target":34962
		},
		{
			"buffer":0,
			"byteLength":1990656,
			"byteOffset":7962624,
			"target":34963
		}
	],
	"buffers":[
		{
			"byteLength":9953280,
			"uri":"untitled.bin"
		}
	]
}
